<svg id="Layer_3" enable-background="new 0 0 64 64" height="512" viewBox="0 0 64 64" width="512" xmlns="http://www.w3.org/2000/svg"><path d="m2 40h8v20h-8z" fill="#e4725f"/><path d="m28 50h24c2.209 0 4 1.791 4 4v1l-32 7-6-4h-8v-16h12l5.519 6.438c.31.363.481.824.481 1.302v1.26c0 1.105-.895 2-2 2h-1.172c-.53 0-1.039-.211-1.414-.586l-4.414-4.414" fill="#fdd089"/><path d="m49 43c1.889-.63 3.37-2.111 4-4 .63 1.889 2.111 3.37 4 4-1.889.63-3.37 2.111-4 4-.63-1.889-2.111-3.37-4-4z" fill="#f0d365"/><path d="m7 21c1.889-.63 3.37-2.111 4-4 .63 1.889 2.111 3.37 4 4-1.889.63-3.37 2.111-4 4-.63-1.889-2.111-3.37-4-4z" fill="#f0d365"/><circle cx="32" cy="31" fill="#b49e4c" r="10"/><ellipse cx="30.5" cy="31" fill="#f0d365" rx="8.5" ry="9.875"/><path d="m61 23h-24c-1.657 0-3-1.343-3-3 0-1.657 1.343-3 3-3h6v-6l-3-3h-5l-5 6v6c0 1.657-1.343 3-3 3-1.657 0-3-1.343-3-3v-8l4-4h-15c-1.657 0-3-1.343-3-3 0-1.657 1.343-3 3-3h30l11 9h7z" fill="#fdd089"/><path d="m24 12h-6c-2.209 0-4-1.791-4-4h14z" fill="#fdd089"/><path d="m61 8h2v18h-2z"/><path d="m25.887 23.844c-1.699-.493-2.887-2.073-2.887-3.844v-8c0-.266.105-.52.293-.707l2.293-2.293h-12.586c-2.206 0-4-1.794-4-4s1.794-4 4-4h30c.231 0 .455.08.633.226l10.724 8.774h7.643v2h-8c-.231 0-.455-.08-.633-.226l-10.724-8.774h-29.643c-1.103 0-2 .897-2 2s.897 2 2 2h15c.404 0 .769.243.924.617s.069.804-.217 1.09l-3.707 3.707v7.586c0 .886.594 1.676 1.444 1.922z"/><path d="m33.374 21.689c-.248-.53-.374-1.099-.374-1.689 0-2.206 1.794-4 4-4h5v-4.586l-2.414-2.414h-4.118l-4.468 5.362v5.638c0 .539-.106 1.063-.315 1.558l-1.842-.779c.104-.247.157-.508.157-.779v-6c0-.234.082-.461.232-.641l5-6c.19-.227.471-.359.768-.359h5c.265 0 .52.105.707.293l3 3c.188.187.293.441.293.707v6c0 .553-.448 1-1 1h-6c-1.103 0-2 .897-2 2 0 .296.062.579.186.844z"/><path d="m24 13h-6c-2.757 0-5-2.243-5-5h2c0 1.654 1.346 3 3 3h6z"/><path d="m10 61h-8c-.552 0-1-.447-1-1v-20c0-.553.448-1 1-1h8c.552 0 1 .447 1 1v20c0 .553-.448 1-1 1zm-7-2h6v-18h-6z"/><path d="m26 54h-1.171c-.801 0-1.555-.312-2.122-.879l-4.414-4.414 1.414-1.414 4.414 4.414c.189.189.441.293.708.293h1.171c.551 0 1-.448 1-1v-1.26c0-.238-.085-.47-.241-.651l-5.219-6.089h-11.54v-2h12c.292 0 .569.128.759.35l5.519 6.438c.466.543.722 1.236.722 1.952v1.26c0 1.654-1.346 3-3 3z"/><path d="m24 63c-.196 0-.389-.058-.555-.168l-5.748-3.832h-7.697v-2h8c.197 0 .391.059.555.168l5.646 3.765 30.799-6.738v-.195c0-1.654-1.346-3-3-3h-24v-2h24c2.757 0 5 2.243 5 5v1c0 .47-.327.877-.786.977l-32 7c-.071.015-.143.023-.214.023z"/><path d="m32 38c-2.206 0-4-1.794-4-4h2c0 1.103.897 2 2 2s2-.897 2-2-.897-2-2-2c-2.206 0-4-1.794-4-4s1.794-4 4-4 4 1.794 4 4h-2c0-1.103-.897-2-2-2s-2 .897-2 2 .897 2 2 2c2.206 0 4 1.794 4 4s-1.794 4-4 4z"/><path d="m31 21h2v4h-2z"/><path d="m31 37h2v4h-2z"/><path d="m32 42c-6.065 0-11-4.935-11-11s4.935-11 11-11 11 4.935 11 11-4.935 11-11 11zm0-20c-4.962 0-9 4.037-9 9s4.038 9 9 9 9-4.037 9-9-4.038-9-9-9z"/><path d="m38 22h24v2h-24z"/><path d="m53 48c-.431 0-.812-.275-.949-.684-.527-1.581-1.786-2.84-3.368-3.368-.408-.136-.683-.517-.683-.948s.275-.812.684-.948c1.582-.528 2.841-1.787 3.368-3.368.136-.409.517-.684.948-.684s.812.275.949.684c.527 1.581 1.786 2.84 3.368 3.368.408.136.683.517.683.948s-.275.812-.684.948c-1.582.528-2.841 1.787-3.368 3.368-.136.409-.517.684-.948.684zm-1.804-5c.701.492 1.312 1.104 1.804 1.804.492-.7 1.104-1.312 1.804-1.804-.701-.492-1.312-1.104-1.804-1.804-.492.7-1.104 1.312-1.804 1.804z"/><path d="m11 26c-.431 0-.812-.275-.949-.684-.527-1.581-1.786-2.84-3.368-3.368-.408-.136-.683-.517-.683-.948s.275-.812.684-.948c1.582-.528 2.841-1.787 3.368-3.368.136-.409.517-.684.948-.684s.812.275.949.684c.527 1.581 1.786 2.84 3.368 3.368.408.136.683.517.683.948s-.275.812-.684.948c-1.582.528-2.841 1.787-3.368 3.368-.136.409-.517.684-.948.684zm-1.804-5c.701.492 1.312 1.104 1.804 1.804.492-.7 1.104-1.312 1.804-1.804-.701-.492-1.312-1.104-1.804-1.804-.492.7-1.104 1.312-1.804 1.804z"/></svg>